<svg xmlns="http://www.w3.org/2000/svg" xmlns:xlink="http://www.w3.org/1999/xlink" width="143.16" height="41.29" viewBox="0 0 37.88 10.92"><g transform="translate(-43.71 -62.19)"><path d="M44.6 62.89v9.52" fill="none" stroke="#000" stroke-width=".4"/><path d="M49.1 62.89v9.52" id="a" fill="none" stroke="#000" stroke-width=".4" stroke-linecap="butt" stroke-linejoin="miter" stroke-miterlimit="4" stroke-dasharray="none" stroke-opacity="1"/><use xlink:href="#a" transform="translate(4.51)" width="100%" height="100%"/><use xlink:href="#a" transform="translate(9.03)" width="100%" height="100%"/><use xlink:href="#a" transform="translate(13.54)" width="100%" height="100%"/><use xlink:href="#a" transform="translate(18.06)" width="100%" height="100%"/><use xlink:href="#a" transform="translate(22.57)" width="100%" height="100%"/><use xlink:href="#a" transform="translate(27.09)" width="100%" height="100%"/><use xlink:href="#a" transform="translate(31.6)" width="100%" height="100%"/><path d="M44.4 63.1h36.5M44.4 67.61h36.5M44.4 72.2h36.5" fill="none" stroke="#000" stroke-width=".41"/><circle cx="44.66" cy="63.14" r=".95" fill="#ee2b2b"/><circle cx="44.66" cy="67.65" r=".95" fill="#ee2b2b"/><circle cx="44.66" cy="72.17" r=".95" fill="#ee2b2b"/><circle cx="53.66" cy="67.65" r=".95" fill="#ee2b2b"/><circle cx="58.15" cy="67.65" r=".95" fill="#0bb870"/><circle cx="62.65" cy="72.17" r=".95" fill="#0bb870"/><circle cx="67.15" cy="67.65" r=".95" fill="#0bb870"/><circle cx="62.65" cy="63.14" r=".95" fill="#0bb870"/><circle cx="71.65" cy="63.14" r=".95" fill="#0db1f1"/><circle cx="67.15" cy="63.14" r=".95" fill="#0db1f1"/><circle cx="76.19" cy="63.11" r=".95" fill="#0db1f1"/><circle cx="71.65" cy="67.65" r=".95" fill="#0db1f1"/><circle cx="71.65" cy="72.17" r=".95" fill="#0db1f1"/><circle cx="80.64" cy="63.14" r=".95" fill="#e9a6da"/><circle cx="76.14" cy="67.65" r=".95" fill="#e9a6da"/><circle cx="80.64" cy="67.65" r=".95" fill="#e9a6da"/><circle cx="76.14" cy="72.17" r=".95" fill="#e9a6da"/><path d="M62.65 63.14l-4.5 4.51 4.5 4.52 4.5-4.52z" fill="none" stroke="#0bb870" stroke-width=".53"/><path d="M67.15 63.14l9.04-.03M71.65 72.17v-9.03" fill="none" stroke="#0db1f1" stroke-width=".53"/><path d="M80.64 63.14l-4.5 4.51h4.5l-4.5 4.52" fill="none" stroke="#e9a6da" stroke-width=".53"/><circle cx="49.16" cy="63.14" r=".95" fill="#ee2b2b"/><circle cx="49.16" cy="72.17" r=".95" fill="#ee2b2b"/><path style="mix-blend-mode:normal" d="M44.66 63.14v9.03h4.5l4.5-4.52-4.5-4.51z" fill="none" stroke="#ee2b2b" stroke-width=".53"/><circle cx="58.15" cy="72.17" r=".95" fill="#831583"/><circle cx="53.66" cy="72.17" r=".95" fill="#831583"/><circle cx="53.66" cy="63.14" r=".95" fill="#831583"/><circle cx="58.15" cy="63.14" r=".95" fill="#831583"/><circle cx="80.71" cy="72.19" r=".95" fill="#831583"/><circle cx="67.17" cy="72.19" r=".95" fill="#831583"/></g></svg>